Coordinates
version=1
nRows=5
nColumns=24
inDegrees=yes

Units are S.I. units (second, meters, Newtons, ...)
Angles are in degrees.

endheader
time	pelvis_tilt	pelvis_list	pelvis_rotation	pelvis_tx	pelvis_ty	pelvis_tz	hip_flexion_r	hip_adduction_r	hip_rotation_r	knee_angle_r	ankle_angle_r	subtalar_angle_r	mtp_angle_r	hip_flexion_l	hip_adduction_l	hip_rotation_l	knee_angle_l	ankle_angle_l	subtalar_angle_l	mtp_angle_l	lumbar_extension	lumbar_bending	lumbar_rotation
      1.25000000000000000000	      5.62394804474693987828	     -3.36538968912926117483	     -3.61872786297742443651	      0.57889355382403429040	      1.01532371470056537177	      0.04502802899925425345	    -23.01149828458473578507	      3.70781485727196802316	      1.86060950076947073661	     -6.30091557109458832997	     12.54894294973022716988	      0.00000235743725551032	      0.00000000000000000000	     18.42682570496319272024	     -4.15944178763518213060	     -3.74250750713371260758	     -4.19444906227883507199	     -0.20414889901839494701	      0.00000358050640237071	      0.00000000000000000000	    -23.49126330285765718031	      1.32625054239867412598	      3.68752633251595929309
      1.26699999999999990408	      5.51061510308235114053	     -3.13693646642513224165	     -3.63382209896855901121	      0.58110218852991024630	      1.01405072820956876356	      0.04313020403553211035	    -23.31364889765574588409	      3.26911858028814572563	      1.90346612245958679566	     -7.94840217350667455065	     12.71139423149875646857	      0.00000283331875693624	      0.00000000000000000000	     19.02122368450809375418	     -3.69670736783701014971	     -3.45755957572073313600	     -6.90761591560000187684	     -0.95260513686402936706	      0.00000378110276027905	      0.00000000000000000000	    -23.06300031211411649679	      0.83238529969833952027	      3.44440123388956287442
      1.28299999999999991829	      5.32853112347373691904	     -3.34336122554473513802	     -3.79929530365601397790	      0.58212171013052538271	      1.01320564412376223906	      0.04176987737342392065	    -23.07355886674287859250	      3.25392247004742918293	      2.14499643292381758641	    -10.39355622412687907286	     12.66868414165614176170	      0.00000341199538010140	      0.00000000000000000000	     19.60723923299101656426	     -3.79744850992166371739	     -3.37012849302322159417	     -9.57688043313493686526	     -2.07290737596968055456	      0.00000407743630572714	      0.00000000000000000000	    -22.87718453652971462020	      0.62336290489702472772	      3.34895196962068553148
      1.30000000000000004441	      5.25156683248727595981	     -3.23963467461906118317	     -3.99862741209505045958	      0.58473887361916077055	      1.01311081811187841950	      0.04016965228841273827	    -22.98783356583620118840	      2.87051743239770562610	      2.20871622605855932875	    -12.78498776771290934562	     12.13277490646928491458	      0.00000414252920996803	      0.00000000000000000000	     19.95773672601903214741	     -3.61906089769492966823	     -3.57761604803697519372	    -12.29620440025248839788	     -2.95624840702240332391	      0.00000444880227646033	      0.00000000000000000000	    -22.53144119044404547481	      0.01678467715549506606	      3.18301825531885995701
      1.31699999999999994849	      5.43658923766509616371	     -3.05360774978950511027	     -4.16536851779192041079	      0.58788588178864231715	      1.01397158277407872795	      0.03834886979002333912	    -22.62783363734480346352	      2.39424230765016865519	      2.13964348281828931064	    -16.19891138013733211665	     11.31025889283142937813	      0.00000496155432584686	      0.00000000000000000000	     19.82621533273050928869	     -3.35903415939557659087	     -3.90919989987407046073	    -14.75744579063949224462	     -3.52797599210294121619	      0.00000483446519538033	      0.00000000000000000000	    -22.43652106865628681476	     -0.61360478899307513423	      2.81936820965174961273
